<svg width="19" height="20" viewBox="0 0 19 20" fill="none" xmlns="http://www.w3.org/2000/svg">
<rect x="9.24219" y="9.29639" width="6.33333" height="0.703704" fill="#1ABCFE"/>
<rect x="9.24219" y="10" width="6.33333" height="0.703704" fill="#1ABCFE"/>
<rect width="4.92593" height="0.703704" transform="matrix(1 0 0 -1 9.94629 11.4072)" fill="#1ABCFE"/>
<rect width="4.92593" height="0.703704" transform="matrix(1 0 0 -1 9.94629 8.59253)" fill="#1ABCFE"/>
<rect width="4.92593" height="0.703704" transform="matrix(1 0 0 -1 9.94629 12.1111)" fill="#1ABCFE"/>
<rect width="4.92593" height="0.703704" transform="matrix(1 0 0 -1 9.94629 9.29639)" fill="#1ABCFE"/>
<rect width="3.51852" height="0.703704" transform="matrix(1 0 0 -1 10.6499 12.8147)" fill="#1ABCFE"/>
<rect width="3.51852" height="0.703704" transform="matrix(1 0 0 -1 10.6499 7.88892)" fill="#1ABCFE"/>
<rect x="2.90918" y="14.9258" width="6.33333" height="0.703704" fill="#0ACF83"/>
<rect x="2.90918" y="15.6294" width="6.33333" height="0.703704" fill="#0ACF83"/>
<rect width="5.62963" height="0.703704" transform="matrix(1 0 0 -1 3.61279 17.0369)" fill="#0ACF83"/>
<rect width="5.62963" height="0.703704" transform="matrix(1 0 0 -1 3.61279 14.2219)" fill="#0ACF83"/>
<rect width="4.92593" height="0.703704" transform="matrix(1 0 0 -1 3.61279 17.7405)" fill="#0ACF83"/>
<rect width="5.62963" height="0.703704" transform="matrix(1 0 0 -1 3.61279 14.9258)" fill="#0ACF83"/>
<rect width="3.51852" height="0.703704" transform="matrix(1 0 0 -1 4.31641 18.4443)" fill="#0ACF83"/>
<rect width="4.92593" height="0.703704" transform="matrix(1 0 0 -1 4.31641 13.5183)" fill="#0ACF83"/>
<rect x="2.90918" y="9.29639" width="6.33333" height="0.703704" fill="#A259FF"/>
<rect x="2.90918" y="10" width="6.33333" height="0.703704" fill="#A259FF"/>
<rect width="5.62963" height="0.703704" transform="matrix(1 0 0 -1 3.61279 11.4072)" fill="#A259FF"/>
<rect width="5.62963" height="0.703704" transform="matrix(1 0 0 -1 3.61279 8.59253)" fill="#A259FF"/>
<rect width="5.62963" height="0.703704" transform="matrix(1 0 0 -1 3.61279 12.1111)" fill="#A259FF"/>
<rect width="5.62963" height="0.703704" transform="matrix(1 0 0 -1 3.61279 9.29639)" fill="#A259FF"/>
<rect width="4.92593" height="0.703704" transform="matrix(1 0 0 -1 4.31641 12.8147)" fill="#A259FF"/>
<rect width="4.92593" height="0.703704" transform="matrix(1 0 0 -1 4.31641 7.88892)" fill="#A259FF"/>
<rect x="2.90918" y="3.6665" width="6.33333" height="0.703704" fill="#F24E1E"/>
<rect x="2.90918" y="4.37036" width="6.33333" height="0.703704" fill="#F24E1E"/>
<rect width="5.62963" height="0.703704" transform="matrix(1 0 0 -1 3.61279 5.77759)" fill="#F24E1E"/>
<rect width="5.62963" height="0.703704" transform="matrix(1 0 0 -1 3.61279 2.96289)" fill="#F24E1E"/>
<rect width="5.62963" height="0.703704" transform="matrix(1 0 0 -1 3.61279 6.4812)" fill="#F24E1E"/>
<rect width="5.62963" height="0.703704" transform="matrix(1 0 0 -1 3.61279 3.6665)" fill="#F24E1E"/>
<rect width="4.92593" height="0.703704" transform="matrix(1 0 0 -1 4.31641 7.18506)" fill="#F24E1E"/>
<rect width="4.92593" height="0.703704" transform="matrix(1 0 0 -1 4.31641 2.25903)" fill="#F24E1E"/>
<rect width="6.33333" height="0.703704" transform="matrix(-1 0 0 1 15.5757 3.6665)" fill="#FF7262"/>
<rect width="6.33333" height="0.703704" transform="matrix(-1 0 0 1 15.5757 4.37036)" fill="#FF7262"/>
<rect x="14.8721" y="5.77759" width="5.62963" height="0.703704" transform="rotate(180 14.8721 5.77759)" fill="#FF7262"/>
<rect x="14.8721" y="2.96289" width="5.62963" height="0.703704" transform="rotate(180 14.8721 2.96289)" fill="#FF7262"/>
<rect x="14.8721" y="6.4812" width="5.62963" height="0.703704" transform="rotate(180 14.8721 6.4812)" fill="#FF7262"/>
<rect x="14.8721" y="3.6665" width="5.62963" height="0.703704" transform="rotate(180 14.8721 3.6665)" fill="#FF7262"/>
<rect x="14.1685" y="7.18506" width="4.92593" height="0.703704" transform="rotate(180 14.1685 7.18506)" fill="#FF7262"/>
<rect x="14.1685" y="2.25903" width="4.92593" height="0.703704" transform="rotate(180 14.1685 2.25903)" fill="#FF7262"/>
</svg>
