<svg width="18" height="18" viewBox="0 0 18 18" fill="none" xmlns="http://www.w3.org/2000/svg">
<g clip-path="url(#clip0_767_1762)">
<rect x="4.35938" y="4.92188" width="8.71875" height="8.71875" fill="black"/>
<rect x="7.99219" y="2.01562" width="1.45312" height="2.90625" fill="black"/>
<rect x="2.90625" y="3.46875" width="1.45312" height="1.45312" fill="black"/>
<rect x="6.53906" y="3.46875" width="1.45312" height="1.45312" fill="#A0A0A0"/>
<rect x="9.44531" y="3.46875" width="1.45312" height="1.45312" fill="#A0A0A0"/>
<rect x="7.99219" y="0.5625" width="1.45312" height="1.45312" fill="#A0A0A0"/>
<rect x="14.5312" y="7.10156" width="1.45312" height="1.45312" transform="rotate(90 14.5312 7.10156)" fill="#A0A0A0"/>
<rect x="14.5312" y="10.0078" width="1.45312" height="1.45312" transform="rotate(90 14.5312 10.0078)" fill="#A0A0A0"/>
<rect x="17.4375" y="8.55469" width="1.45312" height="1.45312" transform="rotate(90 17.4375 8.55469)" fill="#A0A0A0"/>
<rect x="10.8984" y="15.0938" width="1.45312" height="1.45312" transform="rotate(-180 10.8984 15.0938)" fill="#A0A0A0"/>
<rect x="7.99219" y="15.0938" width="1.45312" height="1.45312" transform="rotate(-180 7.99219 15.0938)" fill="#A0A0A0"/>
<rect x="9.44531" y="18" width="1.45312" height="1.45312" transform="rotate(-180 9.44531 18)" fill="#A0A0A0"/>
<rect x="2.90625" y="11.4609" width="1.45312" height="1.45313" transform="rotate(-90 2.90625 11.4609)" fill="#A0A0A0"/>
<rect x="2.90625" y="8.55469" width="1.45312" height="1.45312" transform="rotate(-90 2.90625 8.55469)" fill="#A0A0A0"/>
<rect y="10.0078" width="1.45312" height="1.45312" transform="rotate(-90 0 10.0078)" fill="#A0A0A0"/>
<rect x="2.90625" y="13.6406" width="1.45312" height="1.45312" fill="black"/>
<rect x="13.0781" y="3.46875" width="1.45312" height="1.45312" fill="black"/>
<rect x="13.0781" y="13.6406" width="1.45312" height="1.45312" fill="black"/>
<rect x="15.9844" y="8.55469" width="1.45312" height="2.90625" transform="rotate(90 15.9844 8.55469)" fill="black"/>
<rect x="7.99219" y="13.6406" width="1.45312" height="2.90625" fill="black"/>
<rect x="4.35938" y="8.55469" width="1.45312" height="2.90625" transform="rotate(90 4.35938 8.55469)" fill="black"/>
<rect x="5.8125" y="6.375" width="1.45312" height="1.45312" fill="white"/>
</g>
<defs>
<clipPath id="clip0_767_1762">
<rect width="18" height="18" fill="white"/>
</clipPath>
</defs>
</svg>
