<?xml version="1.0" encoding="UTF-8"?>
<svg id="Layer_2" data-name="Layer 2" xmlns="http://www.w3.org/2000/svg" viewBox="0 0 481.25 481.25">
  <defs>
    <style>
      .cls-1 {
        fill: #818080;
      }

      .cls-1, .cls-2, .cls-3, .cls-4, .cls-5, .cls-6, .cls-7 {
        stroke-width: 0px;
      }

      .cls-2 {
        fill: #010101;
      }

      .cls-3 {
        fill: none;
      }

      .cls-4 {
        fill: #f6eb16;
      }

      .cls-5 {
        fill: #fff;
      }

      .cls-6 {
        fill: #808233;
      }

      .cls-7 {
        fill: #c1c0bf;
      }
    </style>
  </defs>
  <g id="Layer_1-2" data-name="Layer 1">
    <g>
      <path class="cls-5" d="m138.63,65.65h-14.6v14.6h-14.6v29.19h-14.29c-1.15,28.91-.73,94.32.62,102.17h13.67v14.6h14.6v29.19h14.6v14.6h14.6v14.6h14.6v29.19h14.6v58.38c0,12.09-.04,24.18,0,36.27.05,12.24-.2,24.5.16,36.71h14.43v14.6h14.6v14.6c19.41,0,38.19,0,56.97-.01.26,0,.55-.14.79-.28.25-.15.46-.39.63-.55v-13.75h14.6v-14.6h14.6v-131.36h14.6v-29.19h14.6v-14.6h14.6v-14.6h14.6v-14.6h14.6v-29.19h14.6v-116.76h-14.6v-14.6h-14.6v-14.6h-14.6v-14.6h-14.6v-14.6h-14.6v-14.6h-29.19V7.58c-27.43-1.1-79.91-.71-87.58.62v13.66h-29.19v14.6h-14.6v14.6h-14.6v14.6Z"/>
      <path class="cls-2" d="m299.2,313.77v131.36h-14.6v-14.6h-14.6v-14.6h14.65c-.19-5.29.22-9.98-.29-14.6h-14.36v-14.6h14.6v-72.98h14.6Z"/>
      <path class="cls-1" d="m109.43,211.6h-13.67c-1.36-7.85-1.78-73.25-.62-102.17h14.29v102.17Z"/>
      <path class="cls-2" d="m386.78,109.44v102.17h-14.6v-102.17h14.6Z"/>
      <path class="cls-6" d="m197.02,445.12h-14.43c-.36-12.21-.11-24.47-.16-36.71-.05-12.09,0-24.18,0-36.27h14.6v14.6h29.19v14.6h-29.19v43.79Z"/>
      <path class="cls-1" d="m197.02,21.86v-13.66c7.67-1.33,60.15-1.72,87.58-.62v14.29h-87.58Z"/>
      <path class="cls-2" d="m270,459.72v13.75c-.18.16-.38.39-.63.55-.23.14-.52.28-.79.28-18.78.01-37.56.01-56.97.01v-14.6h58.39Z"/>
      <path class="cls-1" d="m197.02,372.15h-14.6v-58.38h14.6v58.38Z"/>
      <path class="cls-1" d="m167.82,36.46v-14.6h29.19v14.6h-29.19Z"/>
      <path class="cls-2" d="m357.58,240.79v14.6h-14.6v-29.19h14.6v14.6Z"/>
      <path class="cls-2" d="m357.58,80.24h14.6v29.19h-14.6v-29.19Z"/>
      <path class="cls-1" d="m109.43,109.44v-29.19h14.6v29.19h-14.6Z"/>
      <path class="cls-1" d="m182.42,313.77h-14.6v-29.19h14.6v29.19Z"/>
      <path class="cls-2" d="m313.79,284.58v29.19h-14.6v-29.19h14.6Z"/>
      <path class="cls-1" d="m138.63,255.39h-14.6v-29.19h14.6v29.19Z"/>
      <path class="cls-2" d="m342.99,65.65h14.6v14.6h-14.6v-14.6Z"/>
      <path class="cls-2" d="m313.79,36.46h14.6v14.6h-14.6v-14.6Z"/>
      <path class="cls-1" d="m372.18,109.44v-14.6h14.6v14.6h-14.6Z"/>
      <path class="cls-1" d="m357.58,240.79v-14.6h14.6v14.6h-14.6Z"/>
      <path class="cls-2" d="m342.99,255.39v14.6h-14.6v-14.6h14.6Z"/>
      <path class="cls-1" d="m167.82,284.58h-14.6v-14.6h14.6v14.6Z"/>
      <path class="cls-2" d="m328.39,269.98v14.6h-14.6v-14.6h14.6Z"/>
      <path class="cls-1" d="m284.6,21.86h14.6v14.6h-14.6v-14.6Z"/>
      <path class="cls-2" d="m299.2,36.46v-14.6h14.6v14.6h-14.6Z"/>
      <path class="cls-1" d="m153.22,51.05v-14.6h14.6v14.6h-14.6Z"/>
      <path class="cls-1" d="m138.63,65.65v-14.6h14.6v14.6h-14.6Z"/>
      <path class="cls-2" d="m372.18,226.2h-14.6v-14.6h14.6v14.6Z"/>
      <path class="cls-2" d="m328.39,51.05h14.6v14.6h-14.6v-14.6Z"/>
      <path class="cls-1" d="m153.22,269.98h-14.6v-14.6h14.6v14.6Z"/>
      <path class="cls-1" d="m124.03,226.2h-14.6v-14.6h14.6v14.6Z"/>
      <path class="cls-1" d="m124.03,80.24v-14.6h14.6v14.6h-14.6Z"/>
      <path class="cls-2" d="m211.61,459.72h-14.6v-14.6h14.6v14.6Z"/>
      <path class="cls-2" d="m284.6,445.12v14.6h-14.6v-14.6h14.6Z"/>
      <path class="cls-7" d="m270,386.74v14.6h-14.6v-87.57h14.6v72.98Z"/>
      <path class="cls-1" d="m270,386.74v-72.98h14.6v72.98h-14.6Z"/>
      <path class="cls-1" d="m299.2,284.58v29.19h-14.6v-29.19h14.6Z"/>
      <path class="cls-6" d="m270,401.34h14.36c.51,4.61.09,9.31.29,14.6h-14.65v-14.6Z"/>
      <path class="cls-6" d="m270,415.93v14.6h-14.6v-14.6h14.6Z"/>
      <path class="cls-6" d="m284.6,445.12h-14.6v-14.6h14.6v14.6Z"/>
      <path class="cls-7" d="m124.03,211.6h-14.6v-102.17h14.6v102.17Z"/>
      <path class="cls-1" d="m328.39,51.05v14.6h14.6v14.6h14.6v29.19h14.6v102.17h-14.6v14.6h-14.6v29.19h-14.6v14.6h-14.6v-29.19h14.6v-29.19h14.29c1.17-29.61.73-108.91-.62-116.76h-13.67v-14.6h-14.6v-29.19h14.6Z"/>
      <path class="cls-5" d="m226.21,386.74h-14.6c0-12.09.04-24.18,0-36.27-.05-12.24.2-24.5-.16-36.71h-14.43v-29.19h-14.6v-14.6h29.19v-14.6h14.6v29.38h-14.4v14.4h14.4v87.57Z"/>
      <path class="cls-5" d="m255.4,313.77v87.57h-29.19v-14.6h14.6v-72.98h14.6Z"/>
      <path class="cls-7" d="m197.02,313.77h14.43c.36,12.21.11,24.47.16,36.71.05,12.09,0,24.18,0,36.27h-14.6v-72.98Z"/>
      <path class="cls-5" d="m197.02,415.93v-14.6h14.6v14.6h-14.6Z"/>
      <path class="cls-4" d="m211.61,415.93v-14.6h14.6v14.6h-14.6Z"/>
      <path class="cls-4" d="m197.02,415.93h14.6v14.6h-14.6v-14.6Z"/>
      <path class="cls-5" d="m197.02,430.53h14.6v14.6h-14.6v-14.6Z"/>
      <path class="cls-5" d="m197.02,36.46v-14.6h72.99v14.6h14.6v14.6h14.6v43.79h14.6v58.38h14.6v58.38h-14.6v29.19h-14.6v-43.33h-14.9v14.49h-14.29v43.44h-43.79v-43.79h-14.6v-14.6h-43.79v-72.98h14.2c1.15,5.22-.59,10.08.95,14.26h14.12v-14.32h58.13v-14.58h-58.21c0-5.4.03-10.22,0-15.04-.04-4.72.18-9.46-.12-14.11h-29.06v-14.6h29.51v-14.9h28.92c-.19-4.99.24-9.68-.28-14.29h-28.96Z"/>
      <path class="cls-7" d="m284.6,36.46h-14.6v-14.6h14.6v14.6Z"/>
      <path class="cls-6" d="m211.61,459.72v-14.6h14.6v14.6h-14.6Z"/>
      <path class="cls-4" d="m226.21,459.72v-14.6h14.6v14.6h-14.6Z"/>
      <path class="cls-7" d="m240.81,459.72v-14.6h14.6v14.6h-14.6Z"/>
      <path class="cls-6" d="m255.4,459.72v-14.6h14.6v14.6h-14.6Z"/>
      <path class="cls-7" d="m182.42,284.58h14.6v29.19h-14.6v-29.19Z"/>
      <path class="cls-4" d="m197.02,36.46h28.96c.52,4.61.1,9.3.28,14.29h-28.92v14.9h-29.51v-14.6h14.6v-14.6h14.6Z"/>
      <path class="cls-7" d="m182.42,36.46v14.6h-14.6v-14.6h14.6Z"/>
      <path class="cls-7" d="m124.03,80.24h14.6v29.19h-14.6v-29.19Z"/>
      <path class="cls-7" d="m182.42,269.98v14.6h-14.6v-14.6h-14.6v-14.6h29.19v14.6Z"/>
      <path class="cls-1" d="m313.79,269.98v14.6h-14.6v-14.6h14.6Z"/>
      <path class="cls-7" d="m153.22,255.39h-14.6v-29.19h14.6v29.19Z"/>
      <path class="cls-7" d="m124.03,226.2v-14.6h14.6v14.6h-14.6Z"/>
      <path class="cls-1" d="m299.2,36.46h14.6v14.6h-14.6v-14.6Z"/>
      <path class="cls-7" d="m299.2,36.46v14.6h-14.6v-14.6h14.6Z"/>
      <path class="cls-7" d="m167.82,51.05v14.6h-14.6v-14.6h14.6Z"/>
      <path class="cls-7" d="m138.63,80.24v-14.6h14.6v14.6h-14.6Z"/>
      <path class="cls-5" d="m270,313.77h-14.6v-14.6h-14.6v-29.19h14.6v14.6h14.6v29.19Z"/>
      <path class="cls-2" d="m226.21,415.93v-14.6h43.79v14.6h-43.79Z"/>
      <path class="cls-7" d="m270,313.77v-29.19h14.6v29.19h-14.6Z"/>
      <path class="cls-7" d="m299.2,269.98v14.6h-14.6v-14.6h14.6Z"/>
      <path class="cls-2" d="m270,445.12h-29.19v-14.6h29.19v14.6Z"/>
      <path class="cls-7" d="m255.4,430.53h-14.6v-14.6h14.6v14.6Z"/>
      <path class="cls-4" d="m138.63,80.24h14.6v43.79h14.6v102.17h-14.6v-87.22h-14.6c0,14.25,0,28.15-.01,42.05,0,.26-.15.55-.31.77-.17.24-.43.41-.65.61h-13.63v-58.38h14.6v-43.79Z"/>
      <path class="cls-5" d="m124.03,182.41h13.63c.22-.2.48-.37.65-.61.16-.22.31-.51.31-.77.01-13.9.01-27.8.01-42.05h14.6v87.22h-14.6v-14.6h-14.6v-29.19Z"/>
      <path class="cls-5" d="m138.63,109.44v14.6h-14.6v-14.6h14.6Z"/>
      <path class="cls-7" d="m328.39,211.6v-116.76h13.67c1.35,7.86,1.8,87.15.62,116.76h-14.29Z"/>
      <path class="cls-7" d="m299.2,51.05h14.6v29.19h-14.6v-29.19Z"/>
      <path class="cls-7" d="m313.79,269.98h-14.6v-29.19h14.6v29.19Z"/>
      <path class="cls-7" d="m313.79,240.79v-29.19h14.6v29.19h-14.6Z"/>
      <path class="cls-7" d="m313.79,80.24h14.6v14.6h-14.6v-14.6Z"/>
      <path class="cls-1" d="m240.81,313.77v72.98h-14.6v-72.98h14.6Z"/>
      <path class="cls-1" d="m240.81,269.98v29.19h-29v-14.4h14.4v-14.79h14.6Z"/>
      <path class="cls-1" d="m211.61,211.6h14.6v43.79h-14.6v-43.79Z"/>
      <path class="cls-1" d="m182.42,269.98v-14.6h29.19v14.6h-29.19Z"/>
      <path class="cls-7" d="m240.81,269.98h-14.6v-14.6h14.6v14.6Z"/>
      <path class="cls-7" d="m226.21,299.17h14.6v14.6h-14.6v-14.6Z"/>
      <path class="cls-1" d="m240.81,313.77v-14.6h14.6v14.6h-14.6Z"/>
      <path class="cls-6" d="m211.61,430.53v-14.6h14.6v14.6h-14.6Z"/>
      <path class="cls-4" d="m211.61,430.53h14.6v14.6h-14.6v-14.6Z"/>
      <path class="cls-4" d="m167.82,80.24h29.06c.3,4.64.08,9.39.12,14.11.04,4.82,0,9.63,0,15.04h58.21v14.58h-58.13v14.32h-14.12c-1.54-4.18.2-9.04-.95-14.26h-14.2v-43.79Z"/>
      <path class="cls-1" d="m299.2,240.79v14.6h-14.6v-14.6h-14.6v-28.84h14.29v-14.49h14.9v43.33Z"/>
      <path class="cls-4" d="m313.79,94.84h14.6v58.38h-14.6v-58.38Z"/>
      <path class="cls-7" d="m167.82,211.6v-14.6h29.19v14.6h-29.19Z"/>
      <path class="cls-4" d="m153.22,80.24v-14.6h14.6v14.6h-14.6Z"/>
      <path class="cls-4" d="m313.79,80.24v14.6h-14.6v-14.6h14.6Z"/>
      <path class="cls-1" d="m240.81,269.98v-14.6h14.6v14.6h-14.6Z"/>
      <path class="cls-7" d="m255.4,269.98v-14.6h14.6v14.6h-14.6Z"/>
      <path class="cls-7" d="m270,240.79h14.6v14.6h-14.6v-14.6Z"/>
      <path class="cls-1" d="m197.02,211.6v-14.6h14.6v14.6h-14.6Z"/>
      <path class="cls-6" d="m226.21,445.12v-14.6h14.6v14.6h-14.6Z"/>
      <path class="cls-1" d="m167.82,211.6h14.6v43.79h-14.6v-43.79Z"/>
      <path class="cls-5" d="m167.82,226.2v29.19h-14.6v-29.19h14.6Z"/>
      <path class="cls-1" d="m255.4,269.98h14.6v14.6h-14.6v-14.6Z"/>
      <path class="cls-4" d="m240.81,430.53h-14.6v-14.6h14.6v14.6Z"/>
      <path class="cls-5" d="m270,284.58v-14.6h14.6v14.6h-14.6Z"/>
      <path class="cls-5" d="m284.6,255.39h14.6v14.6h-14.6v-14.6Z"/>
      <path class="cls-5" d="m153.22,80.24h14.6v43.79h-14.6v-43.79Z"/>
      <path class="cls-5" d="m182.42,255.39v-43.79h29.19v14.6h-14.6v29.19h-14.6Z"/>
      <path class="cls-4" d="m197.02,255.39v-29.19h14.6v29.19h-14.6Z"/>
      <path class="cls-1" d="m284.6,255.39v14.6h-14.6v-14.6h14.6Z"/>
    </g>
    <rect class="cls-3" width="481.25" height="481.25"/>
  </g>
</svg>