<?xml version="1.0" encoding="UTF-8"?>
<svg id="Layer_2" data-name="Layer 2" xmlns="http://www.w3.org/2000/svg" viewBox="0 0 512 512">
  <defs>
    <style>
      .cls-1 {
        fill: #cb2227;
        stroke-width: 0px;
      }
    </style>
  </defs>
  <g id="Layer_8" data-name="Layer 8">
    <path class="cls-1" d="m512,202v15c-1.93.61-.94,2.21-.95,3.29-.07,22.98-.05,45.95-.05,68.93,0,2.16,0,4.33,0,6.49,0,.68,0,1.37,1,1.29v16c-.63-.11-.97.27-.98.79-.05,1.97-.02,3.95-.02,6.27h-16.05v48.05h-16.02v31.89c-2.81,0-5.44-.02-8.08,0-2.59.02-5.2-.09-7.93.08v15.97h-15.86v16.06h-16.03v16.06h-15.85v15.88h-16.03v16.06h-31.99v15.9c-8.13,0-16.09,0-24.04,0-7.92,0-15.83-.02-23.74.02v15.98h-127.75v-48.03h16.02v-48.05h16.02v-31.76h15.86c0,2.79-.02,5.44,0,8.08.02,2.6-.09,5.21.05,7.59h111.76v-15.89h16.03v-16.06h16.03v-15.88c2.81,0,5.45.02,8.09,0,2.59-.02,5.19.1,7.92-.08v-31.97h15.86v-48.05h15.64v-64.05h-15.74v-47.88h-16.02v-16.06h-16.03v-15.9c-2.81,0-5.44.04-8.08-.01-2.59-.05-5.21.21-7.94-.17v-15.87h-15.86v-16.06h-63.93v-15.74h-47.78c0,2.8.02,5.45,0,8.09-.02,2.59.1,5.2-.07,7.75h-63.86v16.08h-31.99v16.06h-16.03v15.88h-15.85v32.06h-16.02v32.06h-15.66c-.65,13.14-.4,75.74.34,80.05h15.46v31.88h16.03v16.06h16.03v15.88c2.81,0,5.45.02,8.09,0,2.59-.02,5.19.1,7.92-.08v-31.97h15.56v-16.06h-15.89v-32.06h-15.73v-47.88h15.95v-32.06h16.02v-31.9c10.46,0,20.75,0,31.03,0,.14,0,.31-.07.43-.16.13-.09.23-.23.53-.54v-15.33h31.82v-15.83h79.9v16.01h31.82c0,2.81-.02,5.46,0,8.1.02,2.59-.1,5.2.08,7.94h15.94v31.89h15.77v80.05h-15.99v47.88h-15.85v16.06h-16.03v16.06h-15.87c0,2.81.04,5.45-.01,8.09-.05,2.6.2,5.22-.11,7.6h-31.85v-15.88h-31.77v-48.05h15.98v-63.88c2.81,0,5.44.02,8.08,0,2.59-.02,5.19.1,7.56-.05v-31.99h-15.86v-15.81h-47.96v16.02h-15.85v31.88h-15.83v32.06h15.7v47.9c-2.78,0-5.41-.04-8.05.01-2.6.05-5.21-.2-7.95.16v63.86h-15.85v111.85h-16.02v-16.01h-31.83c0-2.81.04-5.45-.01-8.09-.05-2.6.21-5.22-.17-7.96h-15.83v-15.89h-16.03v-16.06h-16.03v-15.87c-2.81,0-5.45.02-8.09,0-2.58-.02-5.18.1-7.92-.08v-15.98h-15.87v-32.06h-15.87c0-8.15,0-16.12,0-24.09,0-7.93.03-15.87-.02-23.79H0v-128h15.97c0-8.31,0-16.27,0-24.24,0-7.92,0-15.85,0-23.93h15.96c0-10.47,0-20.77,0-31.07,0-.14.08-.3.17-.42.09-.13.23-.23.55-.52h15.27v-15.87h16v-16.03h16v-16.03h16v-16.03h16v-15.85c10.45,0,20.72,0,31,0,.14,0,.3-.08.43-.16.14-.08.25-.21.52-.45v-15.38c15.77,0,31.37,0,46.96,0,.14,0,.3-.08.43-.16.13-.09.23-.23.34-.35V0h127.75v16.03h47.96v16.05h31.99v16.06h15.86c0,2.81-.04,5.46.01,8.1.05,2.6-.21,5.22.17,7.95h15.83v15.89h16.03v16.06h16.03v15.87c2.81,0,5.45-.02,8.09,0,2.58.02,5.18-.1,7.92.08v31.98h15.87v48.05h15.88c0,2.98,0,5.78,0,8.59,0,.68,0,1.37,1,1.29Z"/>
  </g>
</svg>