<?xml version="1.0" encoding="UTF-8"?>
<svg id="Layer_2" data-name="Layer 2" xmlns="http://www.w3.org/2000/svg" viewBox="0 0 255.6 255.56">
  <defs>
    <style>
      .cls-1 {
        fill: #818080;
      }

      .cls-1, .cls-2, .cls-3, .cls-4, .cls-5, .cls-6, .cls-7 {
        stroke-width: 0px;
      }

      .cls-2 {
        fill: #a53f97;
      }

      .cls-3 {
        fill: #bec032;
      }

      .cls-4 {
        fill: #f6eb16;
      }

      .cls-5 {
        fill: #fff;
      }

      .cls-6 {
        fill: #c1c0bf;
      }

      .cls-7 {
        fill: #bf2126;
      }
    </style>
  </defs>
  <g id="Layer_1-2" data-name="Layer 1">
    <g>
      <path class="cls-5" d="m167.72,239.56v7.98h7.99v7.98c2.97,0,5.6.04,8.23-.01,2.58-.05,5.19.21,7.86-.16v-63.74h63.76c0-2.92.04-5.56-.01-8.19-.05-2.58.21-5.19-.14-7.74h-7.83v-7.98h-7.99v-7.98h-7.99v-7.98h-7.99v-7.98h-7.99v-7.98h-7.99v-7.98h7.99v-7.98h7.99v-7.98h7.99v-7.98h7.99v-7.98h7.99v-7.98h7.99c0-8.21,0-16.09-.01-24.07h-63.91V.04c-2.93,0-5.56-.04-8.19.01-2.59.05-5.2-.21-7.74.14v7.83h-7.99v7.98h-7.99v7.98h-7.99v7.98h-7.99v7.98h-7.99v7.98h-7.99v-7.98h-7.99v-7.98h-7.99v-7.98h-7.99v-7.98h-7.99v-7.98h-7.99V.03c-8.21,0-16.09,0-24.08.01v63.9H.04c0,2.93-.04,5.56.01,8.19.05,2.59-.21,5.2.14,7.74h7.83v7.98h7.99v7.98h7.99v7.98h7.99v7.98h7.99v7.98h7.99v15.97h-7.99v7.98h-7.99v7.98h-7.99v7.98h-7.99v7.98h-7.99v7.98H.04c0,2.97-.04,5.6.01,8.23.05,2.58-.21,5.19.16,7.86h63.75v63.75c2.92,0,5.56.04,8.19-.01,2.59-.05,5.19.21,7.74-.14v-7.83h7.99v-7.98h7.99v-7.98h7.99v-7.98h7.99v-7.98h7.99v-7.98h15.97v7.98h7.99v7.98h7.99v7.98h7.99v7.98h7.99Z"/>
      <path class="cls-7" d="m8.02,79.88H.19c-.35-2.54-.09-5.15-.14-7.74-.05-2.63-.01-5.27-.01-8.19h63.76V.04c7.99-.02,15.86,0,24.08-.01v7.99h-16.09v63.87c-21.19,0-42.09,0-62.99,0-.14,0-.3.08-.43.16-.13.09-.23.23-.34.35v7.47Z"/>
      <path class="cls-7" d="m175.71,8.02V.19c2.54-.35,5.15-.09,7.74-.14,2.63-.05,5.27-.01,8.19-.01v63.75h63.91c.02,7.99,0,15.86.01,24.07h-7.99v-16.09h-63.88c0-21.19,0-42.09,0-62.98,0-.14-.08-.3-.16-.43-.09-.13-.23-.23-.35-.34h-7.47Z"/>
      <path class="cls-7" d="m79.89,247.54v7.83c-2.54.35-5.15.09-7.74.14-2.63.05-5.27.01-8.19.01v-63.75H.21c-.37-2.67-.11-5.28-.16-7.86-.05-2.63-.01-5.27-.01-8.23h7.99v8.12h63.88c0,21.19,0,42.08,0,62.97,0,.14.08.3.16.43.09.13.23.23.35.34h7.47Z"/>
      <path class="cls-7" d="m247.58,175.68h7.83c.35,2.54.09,5.15.14,7.74.05,2.63.01,5.27.01,8.19h-63.76v63.74c-2.67.37-5.28.11-7.86.16-2.63.05-5.27.01-8.23.01v-7.98h8.12v-63.87c21.19,0,42.08,0,62.98,0,.14,0,.3-.08.43-.16.13-.09.23-.23.34-.35v-7.47Z"/>
      <path class="cls-7" d="m47.95,135.76v-15.97h7.99c0,2.97.04,5.6-.01,8.23-.05,2.58.21,5.19-.14,7.74h-7.83Z"/>
      <path class="cls-7" d="m135.78,207.62h-15.97v-7.98c2.97,0,5.6-.04,8.23.01,2.58.05,5.19-.21,7.74.14v7.83Z"/>
      <path class="cls-7" d="m16.01,87.86h-7.99v-7.98h7.99v7.98Z"/>
      <path class="cls-7" d="m23.99,95.84h-7.99v-7.98h7.99v7.98Z"/>
      <path class="cls-7" d="m247.58,87.86v7.98h-7.99v-7.98h7.99Z"/>
      <path class="cls-7" d="m31.98,103.83h-7.99v-7.98h7.99v7.98Z"/>
      <path class="cls-7" d="m239.59,95.84v7.98h-7.99v-7.98h7.99Z"/>
      <path class="cls-7" d="m39.96,111.81h-7.99v-7.98h7.99v7.98Z"/>
      <path class="cls-7" d="m231.61,103.83v7.98h-7.99v-7.98h7.99Z"/>
      <path class="cls-7" d="m47.95,119.8h-7.99v-7.98h7.99v7.98Z"/>
      <path class="cls-7" d="m223.62,111.81v7.98h-7.99v-7.98h7.99Z"/>
      <path class="cls-7" d="m215.64,119.8v7.98h-7.99v-7.98h7.99Z"/>
      <path class="cls-7" d="m87.87,8.02h7.99v7.98h-7.99v-7.98Z"/>
      <path class="cls-7" d="m207.65,127.78v7.98h-8.01c.1-2.89-.12-5.46.16-7.98h7.86Z"/>
      <path class="cls-7" d="m39.96,143.75v-7.98h7.99v7.98h-7.99Z"/>
      <path class="cls-7" d="m167.72,16v-7.98h7.99v7.98h-7.99Z"/>
      <path class="cls-7" d="m95.86,16h7.99v7.98h-7.99v-7.98Z"/>
      <path class="cls-7" d="m207.65,135.76h7.99v7.98h-7.99v-7.98Z"/>
      <path class="cls-7" d="m31.98,151.73v-7.98h7.99v7.98h-7.99Z"/>
      <path class="cls-7" d="m159.74,23.99v-7.98h7.99v7.98h-7.99Z"/>
      <path class="cls-7" d="m103.84,23.99h7.99v7.98h-7.99v-7.98Z"/>
      <path class="cls-7" d="m215.64,143.75h7.99v7.98h-7.99v-7.98Z"/>
      <path class="cls-7" d="m23.99,159.72v-7.98h7.99v7.98h-7.99Z"/>
      <path class="cls-7" d="m151.75,31.97v-7.98h7.99v7.98h-7.99Z"/>
      <path class="cls-7" d="m111.83,31.97h7.99v7.98h-7.99v-7.98Z"/>
      <path class="cls-7" d="m223.62,151.73h7.99v7.98h-7.99v-7.98Z"/>
      <path class="cls-7" d="m16.01,167.7v-7.98h7.99v7.98h-7.99Z"/>
      <path class="cls-7" d="m143.77,39.96v-7.98h7.99v7.98h-7.99Z"/>
      <path class="cls-7" d="m119.81,39.96h7.99v7.98h-7.99v-7.98Z"/>
      <path class="cls-7" d="m135.78,47.94v-7.98h7.99v7.98h-7.99Z"/>
      <path class="cls-7" d="m127.8,47.94h7.99v8.07c-2.89-.25-5.46.16-7.99-.27v-7.8Z"/>
      <path class="cls-7" d="m231.61,159.72h7.99v7.98h-7.99v-7.98Z"/>
      <path class="cls-7" d="m8.02,175.68v-7.98h7.99v7.98h-7.99Z"/>
      <path class="cls-7" d="m239.59,167.7h7.99v7.98h-7.99v-7.98Z"/>
      <path class="cls-7" d="m119.81,207.62v7.98h-7.99v-7.98h7.99Z"/>
      <path class="cls-7" d="m143.77,215.6h-7.99v-7.98h7.99v7.98Z"/>
      <path class="cls-7" d="m111.83,215.6v7.98h-7.99v-7.98h7.99Z"/>
      <path class="cls-7" d="m151.75,223.59h-7.99v-7.98h7.99v7.98Z"/>
      <path class="cls-7" d="m103.84,223.59v7.98h-7.99v-7.98h7.99Z"/>
      <path class="cls-7" d="m159.74,231.57h-7.99v-7.98h7.99v7.98Z"/>
      <path class="cls-7" d="m95.86,231.57v7.98h-7.99v-7.98h7.99Z"/>
      <path class="cls-7" d="m167.72,239.56h-7.99v-7.98h7.99v7.98Z"/>
      <path class="cls-7" d="m87.87,239.56v7.98h-7.99v-7.98h7.99Z"/>
      <path class="cls-7" d="m175.71,247.54h-7.99v-7.98h7.99v7.98Z"/>
      <path class="cls-3" d="m175.71,247.54v-7.98h-7.99v-7.98h-7.99v-7.98h-7.99v-7.98h-7.99v-7.98h-7.99v-7.83c-2.54-.35-5.15-.09-7.74-.14-2.63-.05-5.27-.01-8.23-.01v7.98h-7.99v7.98h-7.99v7.98h-7.99v7.98h-7.99v7.98h-7.99v7.98h-7.47c-.12-.11-.26-.21-.35-.34-.08-.12-.16-.28-.16-.43,0-20.89,0-41.79,0-62.97H8.02v-8.12h7.99v-7.98h7.99v-7.98h7.99v-7.98h7.99v-7.98h7.99v-7.98h7.83c.35-2.54.09-5.15.14-7.74.05-2.63.01-5.27.01-8.23h-7.99v-7.98h-7.99v-7.98h-7.99v-7.98h-7.99v-7.98h-7.99v-7.98h-7.99v-7.47c.11-.12.21-.26.34-.35.12-.08.28-.16.43-.16,20.9,0,41.8,0,62.99,0V8.02h16.09v7.98h7.99v7.98h7.99v7.98h7.99v7.98h7.99v7.98h7.99v7.8c2.52.42,5.1.01,7.99.27v-8.07h7.99v-7.98h7.99v-7.98h7.99v-7.98h7.99v-7.98h7.99v-7.98h7.47c.12.11.26.21.35.34.08.12.16.28.16.43,0,20.89,0,41.79,0,62.98h63.88v16.09h-7.99v7.98h-7.99v7.98h-7.99v7.98h-7.99v7.98h-7.99v7.98h-7.86c-.28,2.52-.05,5.09-.16,7.98h8.01v7.98h7.99v7.98h7.99v7.98h7.99v7.98h7.99v7.98h7.99v7.47c-.11.12-.21.26-.34.35-.12.08-.28.16-.43.16-20.9,0-41.79,0-62.98,0v63.87h-8.12Zm-23.96-47.9v7.98h7.99v7.76c2.86.64,5.52-.33,8.17.67v7.42h7.8v-47.79h47.67v-8.13h-7.91v-7.84h-7.82v-7.98h-7.99v-7.98h-7.99v-23.95h7.99v-7.98h7.99v-7.98h7.99v-7.98h8.18v-8.17h7.68v-7.79h-55.78v-47.67h-8.13v7.91h-7.84v7.82h-7.99v7.98h-7.99v7.98h-23.96v-7.98h-7.99v-7.98h-7.99v-7.98h-7.99v-7.76c-2.86-.65-5.52.33-8.18-.67v-7.43h-7.79v55.78h-47.67v8.13h7.91v7.84h7.82v7.98h7.99v7.98h7.99v31.94h-7.99v7.98h-7.99v7.98h-7.76c-.64,2.86.33,5.52-.67,8.17h-7.42v7.8h47.8v47.67h8.13v-7.91h7.84v-7.82h7.99v-7.98h7.99v-7.98h31.94v7.98h7.99Z"/>
      <path class="cls-7" d="m175.71,79.88h55.78v7.79h-7.68v8.17h-8.18v-7.98h-39.93v-7.98Z"/>
      <path class="cls-7" d="m79.89,79.88V24.1h7.79v7.43c2.66.99,5.32.02,8.18.67v7.76h-7.99v39.92h-7.99Z"/>
      <path class="cls-7" d="m175.71,175.68v47.79h-7.8v-7.42c-2.66-1-5.32-.03-8.17-.67v-7.76h7.99v-31.94h7.99Z"/>
      <path class="cls-7" d="m95.86,207.62v7.82h-7.84v7.91h-8.13v-47.67h7.99v31.94h7.99Z"/>
      <path class="cls-7" d="m47.95,95.84h-7.82v-7.84h-7.91v-8.13h47.67v7.98h-31.94v7.98Z"/>
      <path class="cls-7" d="m207.65,159.72h7.82v7.84h7.91v8.13h-47.67v-7.98h31.94v-7.98Z"/>
      <path class="cls-7" d="m159.74,47.94v-7.82h7.84v-7.91h8.13v47.67h-7.99v-31.94h-7.99Z"/>
      <path class="cls-7" d="m79.89,175.68h-47.8v-7.8h7.42c1-2.66.03-5.32.67-8.17h7.76v7.98h31.94v7.98Z"/>
      <path class="cls-1" d="m127.8,191.65h-7.99v-8.01c-2.89.1-5.46-.12-7.99.16v7.86h-7.99v-15.97h23.96v15.97Z"/>
      <path class="cls-1" d="m143.77,191.65h-7.99v-15.97h7.99v15.97Z"/>
      <path class="cls-1" d="m191.68,127.78v7.98h-15.97v-7.98h15.97Z"/>
      <path class="cls-7" d="m55.93,103.83h-7.99v-7.98h7.99v7.98Z"/>
      <path class="cls-7" d="m215.64,95.84v7.98h-7.99v-7.98h7.99Z"/>
      <path class="cls-7" d="m63.92,111.81h-7.99v-7.98h7.99v7.98Z"/>
      <path class="cls-7" d="m207.65,103.83v7.98h-7.99v-7.98h7.99Z"/>
      <path class="cls-2" d="m63.92,119.8v-7.98h7.99v7.98h-7.99Z"/>
      <path class="cls-7" d="m199.67,111.81v7.98h-7.99v-7.98h7.99Z"/>
      <path class="cls-1" d="m63.92,119.8h7.99v7.98h-7.99v-7.98Z"/>
      <path class="cls-2" d="m191.68,127.78h-7.99v-7.98h7.99v7.98Z"/>
      <path class="cls-2" d="m63.92,127.78h7.99v7.98h-7.99v-7.98Z"/>
      <path class="cls-1" d="m63.92,135.76h7.99v7.98h-7.99v-7.98Z"/>
      <path class="cls-2" d="m183.69,135.76h7.99v7.98h-7.99v-7.98Z"/>
      <path class="cls-7" d="m55.93,151.73v-7.98h7.99v7.98h-7.99Z"/>
      <path class="cls-7" d="m191.68,143.75h7.99v7.98h-7.99v-7.98Z"/>
      <path class="cls-7" d="m47.95,159.72v-7.98h7.99v7.98h-7.99Z"/>
      <path class="cls-7" d="m199.67,151.73h7.99v7.98h-7.99v-7.98Z"/>
      <path class="cls-7" d="m95.86,39.96h7.99v7.98h-7.99v-7.98Z"/>
      <path class="cls-7" d="m103.84,47.94h7.99v7.98h-7.99v-7.98Z"/>
      <path class="cls-7" d="m151.75,55.92v-7.98h7.99v7.98h-7.99Z"/>
      <path class="cls-7" d="m111.83,55.92h7.99v7.98h-7.99v-7.98Z"/>
      <path class="cls-7" d="m143.77,63.91v-7.98h7.99v7.98h-7.99Z"/>
      <path class="cls-1" d="m119.81,63.91h7.99v7.98h-7.99v-7.98Z"/>
      <path class="cls-2" d="m127.8,71.89v-7.98h7.99v7.98h-7.99Z"/>
      <path class="cls-1" d="m135.78,71.89v-7.98h7.99v7.98h-7.99Z"/>
      <path class="cls-2" d="m111.83,191.65v-7.86c2.52-.28,5.09-.05,7.99-.16v8.01h-7.99Z"/>
      <path class="cls-2" d="m135.78,183.67v7.98h-7.99v-7.98h7.99Z"/>
      <path class="cls-7" d="m103.84,191.65h7.99v7.98h-7.99v-7.98Z"/>
      <path class="cls-7" d="m151.75,199.64h-7.99v-7.98h7.99v7.98Z"/>
      <path class="cls-7" d="m103.84,199.64v7.98h-7.99v-7.98h7.99Z"/>
      <path class="cls-7" d="m159.74,207.62h-7.99v-7.98h7.99v7.98Z"/>
      <path class="cls-3" d="m199.67,111.81h-7.99v-7.98h-7.99v-15.97h31.94v7.98h-7.99v7.98h-7.99v7.98Z"/>
      <path class="cls-2" d="m183.69,87.86v7.98h-15.97v-7.98h15.97Z"/>
      <path class="cls-1" d="m175.71,87.86h-15.97v-7.98h15.97v7.98Z"/>
      <path class="cls-3" d="m111.83,55.92v7.98h-7.99v7.98h-15.97v-31.94h7.99v7.98h7.99v7.98h7.99Z"/>
      <path class="cls-1" d="m87.87,71.89h7.99v15.97h-7.99v-15.97Z"/>
      <path class="cls-2" d="m87.87,79.88v7.98h-7.99v-7.98h7.99Z"/>
      <path class="cls-3" d="m159.74,207.62v-7.98h-7.99v-15.97h7.99v7.98h7.99v15.97h-7.99Z"/>
      <path class="cls-2" d="m175.71,167.7v7.98h-15.97v-7.98h15.97Z"/>
      <path class="cls-1" d="m159.74,175.68h7.99v7.98h-15.97v-7.98h7.99Z"/>
      <path class="cls-4" d="m159.74,183.67h7.99v7.98h-7.99v-7.98Z"/>
      <path class="cls-3" d="m103.84,199.64h-7.99v7.98h-7.99v-23.95h7.99v7.98h7.99v7.98Z"/>
      <path class="cls-1" d="m95.86,183.67h-7.99v-15.97h7.99v15.97Z"/>
      <path class="cls-2" d="m87.87,167.7v7.98h-7.99v-7.98h7.99Z"/>
      <path class="cls-3" d="m63.92,103.83h-7.99v-7.98h-7.99v-7.98h23.96v15.97h-7.99Z"/>
      <path class="cls-2" d="m71.9,95.84v-7.98h7.99v7.98h-7.99Z"/>
      <path class="cls-3" d="m199.67,151.73v7.98h7.99v7.98h-23.96v-7.98h7.99v-7.98h7.99Z"/>
      <path class="cls-1" d="m183.69,159.72v7.98h-23.96v-7.98h23.96Z"/>
      <path class="cls-3" d="m151.75,63.91v-7.98h7.99v-7.98h7.99v23.95h-15.97v-7.98Z"/>
      <path class="cls-2" d="m159.74,71.89h7.99v7.98h-7.99v-7.98Z"/>
      <path class="cls-3" d="m47.95,159.72h7.99v-7.98h15.97v15.97h-23.96v-7.98Z"/>
      <path class="cls-2" d="m71.9,167.7v-7.98h7.99v7.98h-7.99Z"/>
      <path class="cls-3" d="m95.86,175.68v-15.97h-15.97v-7.98h15.97v-7.98h7.99v8.06c2.89-.23,5.46.15,7.99-.25v-7.81h7.99v8.01c2.89-.1,5.46.12,7.99-.16v-7.86h15.97v-7.98h7.99v7.98h7.99v7.98h-7.99v7.98c-2.66,0-5.32,0-8.06-.07-.07-2.52-.07-5.12-.07-7.7h-7.74v7.63c2.69,0,5.28,0,7.81.07.07,5.39.07,10.72.07,16.04h-7.99v-7.98c-2.82,0-5.4,0-8.06-.07-.07-2.52-.07-5.12-.07-7.7h-7.74v7.63c2.69,0,5.28,0,7.81.07.07,2.73.07,5.39.07,8.06h-31.94Zm15.81-8.07v-7.65h-7.66v7.65h7.66Z"/>
      <path class="cls-2" d="m95.86,175.68h7.99v7.98h-7.99v-7.98Z"/>
      <path class="cls-3" d="m135.78,183.67h-7.99v-7.98h7.99v7.98Z"/>
      <path class="cls-4" d="m95.86,183.67h7.99v7.98h-7.99v-7.98Z"/>
      <path class="cls-3" d="m151.75,175.68v7.98h-7.99v-7.98h7.99Z"/>
      <path class="cls-2" d="m143.77,183.67h7.99v7.98h-7.99v-7.98Z"/>
      <path class="cls-3" d="m175.71,127.78v7.98h-7.99v7.98h-7.99v-7.98h-7.99v-8.06c-2.89.23-5.46-.15-7.99.25v7.81h-15.97v-8.16h7.99v-7.8h7.99v-7.98h15.97v7.98h7.99v7.98h7.99Z"/>
      <path class="cls-3" d="m183.69,119.8v7.98h-7.99v-7.98h7.99Z"/>
      <path class="cls-3" d="m183.69,135.76v7.98h-7.99v-7.98h7.99Z"/>
      <path class="cls-1" d="m63.92,103.83h7.99v7.98h-7.99v-7.98Z"/>
      <path class="cls-3" d="m71.9,127.78v-15.97h7.99v15.97h-7.99Z"/>
      <path class="cls-1" d="m183.69,119.8h-7.99v-7.98h15.97v7.98h-7.99Z"/>
      <path class="cls-6" d="m71.9,127.78h7.99v7.98h-7.99v-7.98Z"/>
      <path class="cls-3" d="m71.9,135.76h23.96v7.98h-15.97v7.98h-7.99v-15.97Z"/>
      <path class="cls-2" d="m71.9,143.75v7.98h-7.99v-7.98h7.99Z"/>
      <path class="cls-1" d="m175.71,143.75h15.97v7.98h-15.97v-7.98Z"/>
      <path class="cls-2" d="m119.81,63.91v7.98h-7.99v-7.98h7.99Z"/>
      <path class="cls-2" d="m151.75,63.91v7.98h-7.99v-7.98h7.99Z"/>
      <path class="cls-4" d="m119.81,71.89h7.99v7.98h-7.99v-7.98Z"/>
      <path class="cls-3" d="m127.8,79.88v-7.98h7.99v7.98h-7.99Z"/>
      <path class="cls-4" d="m135.78,79.88v-7.98h7.99v7.98h-7.99Z"/>
      <path class="cls-1" d="m175.71,95.84h7.99v7.98h-7.99v-7.98Z"/>
      <path class="cls-2" d="m191.68,111.81h-7.99v-7.98h7.99v7.98Z"/>
      <path class="cls-3" d="m183.69,103.83v7.98h-7.99v7.98h-7.99v-7.98h-7.99v-7.98h7.99v-7.98h7.99v7.98h7.99Z"/>
      <path class="cls-4" d="m159.74,87.86h7.99v7.98h-7.99v-7.98Z"/>
      <path class="cls-3" d="m159.74,87.86v15.97h-23.96v-23.95h7.99v16.05c2.89-.23,5.46.15,7.99-.25v-15.8h7.99v7.98Z"/>
      <path class="cls-1" d="m111.83,63.91v7.98h-7.99v-7.98h7.99Z"/>
      <path class="cls-2" d="m95.86,79.88v-7.98h7.99v7.98h-7.99Z"/>
      <path class="cls-4" d="m95.86,79.88h7.99v-7.98h7.99v7.98h7.99v8.06c2.89-.23,5.46.15,7.99-.25v-7.81h7.99v23.95h7.99v15.97c-2.82,0-5.4,0-8.06-.07-.07-2.52-.07-5.12-.07-7.7h-7.74v7.63c2.69,0,5.28,0,7.81.07.07,2.56.07,5.04.07,7.88h-7.99v8.16h-7.99v-8.08c-2.89.29-5.47-.18-7.99.3v7.78h-7.99v-7.98c-2.82,0-5.4,0-8.06-.07-.07-2.52-.07-5.12-.07-7.7h-7.74v7.63c2.69,0,5.28,0,7.81.07.07,2.73.07,5.39.07,8.06h-15.97v-23.95h8.01c-.1-2.89.12-5.46-.16-7.98h-7.86v-7.98h7.99v-7.98c2.66,0,5.32,0,8.06.07.07,2.52.07,5.12.07,7.7h7.74v-7.63c-2.69,0-5.28,0-7.81-.07-.07-2.73-.07-5.39-.07-8.06Zm24.04,23.78h7.93c-.1-2.73.13-5.29-.13-7.65h-7.8v7.65Z"/>
      <path class="cls-1" d="m87.87,87.86v7.98h-7.99v-7.98h7.99Z"/>
      <path class="cls-3" d="m159.74,159.72v15.97h-7.99v-15.97h7.99Z"/>
      <path class="cls-6" d="m87.87,159.72h7.99v7.98h-7.99v-7.98Z"/>
      <path class="cls-1" d="m87.87,159.72v7.98h-7.99v-7.98h7.99Z"/>
      <path class="cls-1" d="m79.89,95.84v7.98h-7.99v-7.98h7.99Z"/>
      <path class="cls-4" d="m183.69,151.73h7.99v7.98h-7.99v-7.98Z"/>
      <path class="cls-3" d="m175.71,143.75v15.97h-15.97v-7.98h7.99v-7.98h7.99Z"/>
      <path class="cls-2" d="m175.71,159.72v-7.98h7.99v7.98h-7.99Z"/>
      <path class="cls-1" d="m159.74,79.88h-7.99v-7.98h7.99v7.98Z"/>
      <path class="cls-1" d="m71.9,151.73h7.99v7.98h-7.99v-7.98Z"/>
      <path class="cls-1" d="m151.75,159.72v15.97h-7.99v-15.97h7.99Z"/>
      <path class="cls-6" d="m143.77,135.76v-7.81c2.52-.4,5.1-.02,7.99-.25v8.06h-7.99Z"/>
      <path class="cls-4" d="m95.86,143.75v-7.98h7.99v7.98h-7.99Z"/>
      <path class="cls-4" d="m119.81,143.75h-7.99v-7.98h7.99v7.98Z"/>
      <path class="cls-6" d="m127.8,135.76h7.99v7.98h-7.99v-7.98Z"/>
      <path class="cls-4" d="m135.78,143.75v-7.98h7.99v7.98h-7.99Z"/>
      <path class="cls-6" d="m151.75,135.76h7.99v7.98h-7.99v-7.98Z"/>
      <path class="cls-6" d="m79.89,151.73v-7.98h7.99v7.98h-7.99Z"/>
      <path class="cls-4" d="m87.87,151.73v-7.98h7.99v7.98h-7.99Z"/>
      <path class="cls-6" d="m111.83,143.75v7.81c-2.52.4-5.1.02-7.99.25v-8.06h7.99Z"/>
      <path class="cls-4" d="m127.8,143.75v7.86c-2.52.28-5.09.05-7.99.16v-8.01h7.99Z"/>
      <path class="cls-1" d="m167.72,143.75v7.98h-7.99v-7.98h7.99Z"/>
      <path class="cls-6" d="m143.63,159.57h-7.74v-7.63h7.74v7.63Z"/>
      <path class="cls-1" d="m159.74,151.73v7.98h-7.99v-7.98h7.99Z"/>
      <path class="cls-6" d="m127.66,167.56h-7.74v-7.63h7.74v7.63Z"/>
      <path class="cls-1" d="m135.78,175.68h-7.99v-7.98h7.99v7.98Z"/>
      <path class="cls-6" d="m111.67,167.61h-7.66v-7.65h7.66v7.65Z"/>
      <path class="cls-6" d="m143.77,111.81v-7.98h7.99v7.98h-7.99Z"/>
      <path class="cls-4" d="m151.75,111.81v-7.98h7.99v7.98h-7.99Z"/>
      <path class="cls-6" d="m159.74,111.81h7.99v7.98h-7.99v-7.98Z"/>
      <path class="cls-1" d="m167.72,119.8h7.99v7.98h-7.99v-7.98Z"/>
      <path class="cls-1" d="m175.71,143.75h-7.99v-7.98h7.99v7.98Z"/>
      <path class="cls-4" d="m71.9,103.83h7.99v7.98h-7.99v-7.98Z"/>
      <path class="cls-3" d="m119.81,79.88h-7.99v-7.98h7.99v7.98Z"/>
      <path class="cls-3" d="m151.75,71.89v7.98h-7.99v-7.98h7.99Z"/>
      <path class="cls-3" d="m127.8,79.88v7.81c-2.52.4-5.1.02-7.99.25v-8.06h7.99Z"/>
      <path class="cls-1" d="m159.74,103.83v-7.98h7.99v7.98h-7.99Z"/>
      <path class="cls-6" d="m143.77,79.88h7.99v7.98h-7.99v-7.98Z"/>
      <path class="cls-4" d="m143.77,87.86h7.99v7.81c-2.52.4-5.1.02-7.99.25v-8.06Z"/>
      <path class="cls-3" d="m96,88h7.74v7.63h-7.74v-7.63Z"/>
      <path class="cls-3" d="m119.9,103.66v-7.65h7.8c.25,2.36.03,4.92.13,7.65h-7.93Z"/>
      <path class="cls-3" d="m79.89,111.81v-7.98h7.86c.28,2.52.05,5.09.16,7.98h-8.01Z"/>
      <path class="cls-3" d="m135.64,119.65h-7.74v-7.63h7.74v7.63Z"/>
      <path class="cls-3" d="m95.72,127.64h-7.74v-7.63h7.74v7.63Z"/>
      <path class="cls-3" d="m103.84,135.76h-7.99v-7.98h7.99v7.98Z"/>
      <path class="cls-3" d="m119.81,135.76h-7.99v-7.78c2.52-.47,5.1-.01,7.99-.3v8.08Z"/>
      <path class="cls-3" d="m111.83,143.75h-7.99v-7.98h7.99v7.98Z"/>
      <path class="cls-3" d="m127.8,143.75h-7.99v-7.98h7.99v7.98Z"/>
    </g>
  </g>
</svg>